# xmcd
#
# Track frame offsets:
#	150
#	13265
#	26534
#	39169
#	53185
#	66460
#	79468
#	92134
#	105033
#	117826
#	132124
#	146930
#	161526
#	176494
#	190945
#	205115
#	220095
#	234256
#	247799
#	261500
#	276271
#	289303
#	300848
#	314464
#	327871
#	339172
#
# Disc length: 4645 seconds
#
# Revision: 0
# Processed by: cddbd v1.5.1PL0 Copyright (c) Steve Scherf et al.
# Submitted via: audiograbber 1.83.01
#
DISCID=6f12231a
DTITLE=Various Artist - Atlanta Blues - CD 2
DYEAR=2005
DGENRE=Blues
TTITLE0=Curley Weaver - Birmingham Gambler
TTITLE1=Georgia Browns - Tampa Strut
TTITLE2=Georgia Browns - Decatur Street 81
TTITLE3=Georgia Browns - Next Door Man (take 1)
TTITLE4=Georgia Browns - Next Door Man (take 2)
TTITLE5=Georgia Browns - It Must Have Been Her
TTITLE6=Georgia Browns - Who Stole de Lock
TTITLE7=Georgia Browns - Joker Man
TTITLE8=Curley Weaver - You Was Born to Die
TTITLE9=Curley Weaver - Dirty Mistreater
TTITLE10=Curley Weaver - Black Woman
TTITLE11=Curley Weaver - City Cell Blues
TTITLE12=Curley Weaver - Empty Room Blues
TTITLE13=Curley Weaver - Tricks Ain't Walking No More
TTITLE14=Curley Weaver - Sometime Mama
TTITLE15=Curley Weaver - Oh, Lawdy! Mama
TTITLE16=Curley Weaver - Two Faced Woman
TTITLE17=Curley Weaver - Early Morning Blues
TTITLE18=Curley Weaver - Fried Pie Blues
TTITLE19=Curley Weaver - Brown Skin Woman
TTITLE20=Curley Weaver - She Don't Treat Me Good No More
TTITLE21=Curley Weaver - I Keep on Drinkin'
TTITLE22=Curley Weaver - My Baby's Gone
TTITLE23=Curley Weaver - Ticket Agent
TTITLE24=Curley Weaver - Some Rainy Day
TTITLE25=Curley Weaver - Trixie
EXTD=JSP7754B
EXTT0=
EXTT1=
EXTT2=
EXTT3=
EXTT4=
EXTT5=
EXTT6=
EXTT7=
EXTT8=
EXTT9=
EXTT10=
EXTT11=
EXTT12=
EXTT13=
EXTT14=
EXTT15=
EXTT16=
EXTT17=
EXTT18=
EXTT19=
EXTT20=
EXTT21=
EXTT22=
EXTT23=
EXTT24=
EXTT25=
PLAYORDER=
